<svg xmlns:xlink="http://www.w3.org/1999/xlink" xmlns="http://www.w3.org/2000/svg" viewBox="0 0 24 23" fill="white" aria-hidden="true" width="24"  height="23" >
<path fill-rule="evenodd" clip-rule="evenodd" d="M12.0654 22.5425C10.8571 23.2066 10.9086 22.2287 10.9606 21.9275C10.9915 21.748 11.1321 20.906 11.1321 20.906C11.1721 20.6008 11.2144 20.1287 11.0938 19.8275C10.9594 19.496 10.4273 19.3233 10.0363 19.2393C4.26912 18.4808 0 14.4712 0 9.68425C0 4.34457 5.38427 0 12.0003 0C18.6163 0 24 4.34457 24 9.68425C24 15.6812 17.6395 19.4777 12.0654 22.5425ZM8.20672 11.8677C8.20672 11.5476 7.94437 11.2875 7.622 11.2875H5.98957V7.47053C5.98957 7.15044 5.72721 6.89038 5.40484 6.89038C5.0819 6.89038 4.82012 7.15044 4.82012 7.47053V11.8683C4.82012 12.1889 5.08247 12.449 5.40484 12.449H7.622C7.94437 12.4495 8.20672 12.1883 8.20672 11.8677ZM9.32987 6.89038C9.65224 6.89038 9.9146 7.15044 9.9146 7.47053V11.8683C9.9146 12.1883 9.65281 12.449 9.32987 12.449C9.0075 12.449 8.74515 12.1889 8.74515 11.8683V7.47053C8.74515 7.15044 9.00693 6.89038 9.32987 6.89038ZM15.2531 7.47053C15.2531 7.15044 14.9908 6.89038 14.6684 6.89038C14.3455 6.89038 14.0825 7.15044 14.0825 7.47053V10.1918L11.8088 7.12301C11.6991 6.97783 11.5236 6.89095 11.3413 6.89095C11.2784 6.89095 11.2161 6.90009 11.1555 6.92067C10.916 7.00012 10.7554 7.22132 10.7554 7.4711V11.8688C10.7554 12.1895 11.0183 12.4495 11.3413 12.4495C11.6648 12.4495 11.9271 12.1889 11.9271 11.8688V9.14868L14.1997 12.2175C14.3095 12.3627 14.4844 12.4495 14.6673 12.4495C14.7296 12.4495 14.7924 12.4393 14.853 12.4193C15.0931 12.3409 15.2531 12.1197 15.2531 11.8688V7.47053ZM17.2091 9.08924H18.8415V9.08752C19.1644 9.08752 19.4274 9.34759 19.4274 9.66825C19.4274 9.98833 19.165 10.2484 18.8415 10.2484H17.2091V11.287H18.8415C19.1644 11.287 19.4274 11.547 19.4274 11.8671C19.4274 12.1872 19.1644 12.4478 18.8415 12.4478H16.6244C16.3026 12.4478 16.0396 12.1878 16.0396 11.8671V9.66939V9.66882V9.66825V7.47224V7.47053C16.0396 7.15044 16.3014 6.89038 16.6244 6.89038H18.8415C19.1644 6.89038 19.4274 7.15044 19.4274 7.47053C19.4274 7.79061 19.165 8.05068 18.8415 8.05068H17.2091V9.08924Z"/>
</svg>