<svg xmlns:xlink="http://www.w3.org/1999/xlink" viewBox="0 0 16 16" fill="currentColor" xmlns="http://www.w3.org/2000/svg" aria-hidden="true" class="flex-shrink-0 pointer-events-none w-4 h-4" width="16"  height="16" >
	<path fill-rule="evenodd" clip-rule="evenodd" d="M12.8 1.6H16V13.6C16 14.9256 14.9256 16 13.6 16H2.4C1.0744 16 0 14.9256 0 13.6V0H12.8V1.6ZM12.8 3.2V13.6C12.8 14.0419 13.1581 14.4 13.6 14.4C14.0419 14.4 14.4 14.0419 14.4 13.6V3.2H12.8ZM1.6 1.6V13.6C1.6 14.0419 1.95813 14.4 2.4 14.4H11.336C11.2499 14.1637 11.2 13.8907 11.2 13.6064C11.2 13.6043 11.2 13.6019 11.2 13.5997V13.6V1.6H1.6ZM3.2 8H9.6V9.6H3.2V8ZM3.2 11.2H9.6V12.8H3.2V11.2ZM3.2 3.2H9.6V6.4H3.2V3.2Z" fill="#FFFFFF"></path>
</svg>