<svg xmlns:xlink="http://www.w3.org/1999/xlink" viewBox="0 0 14 14" version="1.1" xmlns="http://www.w3.org/2000/svg" aria-hidden="true" class="flex-shrink-0 pointer-events-none w-4 h-4" width="16"  height="16" >
	<g stroke="none" stroke-width="1" fill="none" fill-rule="evenodd">
		<g transform="translate(-1.000000, -1.000000)" fill="#FFFFFF">
			<path d="M9.9307931,6.06928893 C11.5644969,7.70468808 11.5420751,10.3266478 9.94063683,11.9369728 C9.93762903,11.940254 9.93407435,11.9438087 9.9307931,11.9470899 L8.09329669,13.7845864 C6.47263579,15.4052473 3.83591048,15.4050285 2.21549567,13.7845864 C0.594834776,12.1641989 0.594834776,9.5271728 2.21549567,7.90678534 L3.23011088,6.89217013 C3.49917285,6.62310816 3.96253914,6.80193593 3.97642973,7.18217738 C3.99414845,7.66676237 4.08104672,8.15361689 4.24139015,8.62376441 C4.29569473,8.78295941 4.25689403,8.95905281 4.13794895,9.07799789 L3.78010199,9.43584485 C3.01376755,10.2021793 2.98973244,11.4499815 3.74852002,12.2238082 C4.51479978,13.0052637 5.77430513,13.0099121 6.54646378,12.2377534 L8.38396019,10.4005305 C9.15480634,9.62968432 9.15157978,8.38374144 8.38396019,7.61612184 C8.28276117,7.51511423 8.18082386,7.43663782 8.10119902,7.38181371 C7.9869789,7.30337877 7.91654809,7.17557528 7.91124236,7.03711907 C7.90041426,6.74817823 8.00278906,6.45043271 8.23110892,6.22211285 L8.80680311,5.64639132 C8.95776766,5.49542677 9.19459142,5.47688774 9.36964576,5.59905938 C9.57012116,5.7390453 9.75789397,5.89639493 9.9307931,6.06928893 Z M13.784477,2.21541364 C12.1640622,0.594971496 9.52733686,0.594752746 7.90667596,2.21541364 L6.06917955,4.05291005 C6.06589831,4.0561913 6.06234363,4.05974598 6.05933582,4.06302722 C4.45792489,5.6733522 4.43547571,8.29531192 6.06917955,9.93071107 C6.24206848,10.1035973 6.42983233,10.2609379 6.63029955,10.4009133 C6.80535389,10.5230849 7.04220499,10.5045185 7.1931422,10.3535813 L7.76883639,9.77785981 C7.99715625,9.54953994 8.09953105,9.25179443 8.08870295,8.96285359 C8.08339722,8.82439737 8.01296641,8.69659388 7.89874629,8.61815895 C7.81912145,8.56333484 7.71718414,8.48485843 7.61598512,8.38385081 C6.84836553,7.61623122 6.84513897,6.37028834 7.61598512,5.59944219 L9.45348153,3.76221922 C10.2256402,2.99006057 11.4851182,2.994709 12.2514253,3.7761645 C13.0102129,4.54999111 12.9862051,5.79779336 12.2198433,6.5641278 L11.8619964,6.92197476 C11.7430513,7.04091984 11.7042506,7.21701325 11.7585552,7.37620825 C11.9188986,7.84635577 12.0057969,8.33321029 12.0235156,8.81779528 C12.0374335,9.19803672 12.5007725,9.3768645 12.7698344,9.10780252 L13.7844496,8.09318732 C15.4051379,6.4728272 15.4051379,3.8358011 13.784477,2.21541364 L13.784477,2.21541364 Z" fill="#FFFFFF">
			</path>
		</g>
	</g>
</svg>