<svg xmlns:xlink="http://www.w3.org/1999/xlink" viewBox="0 0 16 16" fill="currentColor" xmlns="http://www.w3.org/2000/svg" aria-hidden="true" class="flex-shrink-0 pointer-events-none w-4 h-4" width="16"  height="16" >
	<path fill-rule="evenodd" clip-rule="evenodd" d="M11.5285 9.80602C11.5855 9.18502 11.6135 8.58302 11.6135 7.99902C11.6135 7.41602 11.5855 6.81402 11.5285 6.19302H14.7465C14.9155 6.79502 15.0005 7.39702 15.0005 7.99902C15.0005 8.60102 14.9155 9.20402 14.7465 9.80602H11.5285ZM12.6725 13.207C11.8905 13.913 11.0015 14.416 10.0045 14.717C10.6815 13.776 11.1525 12.44 11.4155 10.709H14.4645C14.0495 11.669 13.4525 12.501 12.6725 13.207ZM8.00049 14.999C7.45449 14.999 6.95649 14.604 6.50449 13.814C6.05249 13.024 5.72349 11.989 5.51649 10.709H10.4845C10.2775 11.989 9.94749 13.024 9.49649 13.814C9.04449 14.604 8.54649 14.999 8.00049 14.999ZM3.32949 13.207C2.54849 12.501 1.95049 11.669 1.53649 10.709H4.58549C4.86749 12.44 5.33849 13.776 5.99649 14.717C4.99949 14.416 4.10949 13.913 3.32949 13.207ZM1.00049 7.99902C1.00049 7.41602 1.08549 6.81402 1.25449 6.19302H4.47149C4.41549 6.81402 4.38649 7.41602 4.38649 7.99902C4.38649 8.56402 4.41549 9.16602 4.47149 9.80602H1.25449C1.08549 9.18502 1.00049 8.58302 1.00049 7.99902ZM3.32949 2.79202C4.10949 2.08602 4.99949 1.58302 5.99649 1.28202C5.31849 2.22302 4.84849 3.55802 4.58549 5.29002H1.53649C1.95049 4.33002 2.54849 3.49702 3.32949 2.79202ZM8.00049 0.999023C8.54649 0.999023 9.04449 1.39402 9.49649 2.18502C9.94749 2.97502 10.2865 4.01002 10.5115 5.29002H5.51649C5.72349 4.01002 6.05249 2.97502 6.50449 2.18502C6.95649 1.39402 7.45449 0.999023 8.00049 0.999023ZM10.7105 7.99902C10.7105 8.60102 10.6815 9.20402 10.6255 9.80602H5.37549C5.31849 9.20402 5.29049 8.60102 5.29049 7.99902C5.29049 7.39702 5.31849 6.79502 5.37549 6.19302H10.6255C10.6815 6.79502 10.7105 7.39702 10.7105 7.99902ZM12.6725 2.79202C13.4525 3.49702 14.0495 4.33002 14.4645 5.29002H11.4155C11.1325 3.55802 10.6635 2.22302 10.0045 1.28202C11.0015 1.58302 11.8905 2.08602 12.6725 2.79202ZM8.00049 -0.000976562C3.58249 -0.000976562 0.000488281 3.58102 0.000488281 7.99902C0.000488281 12.418 3.58249 15.999 8.00049 15.999C12.4185 15.999 16.0005 12.418 16.0005 7.99902C16.0005 3.58102 12.4185 -0.000976562 8.00049 -0.000976562Z" fill="#794425"></path>
</svg>