<svg xmlns:xlink="http://www.w3.org/1999/xlink" viewBox="0 0 24 24" fill="currentColor" xmlns="http://www.w3.org/2000/svg" aria-hidden="true" class="flex-shrink-0 pointer-events-none w-6 h-6" width="24"  height="24" >
	<path fill-rule="evenodd" clip-rule="evenodd" d="M4 4C4 3.44772 4.44772 3 5 3H23C23.5523 3 24 3.44772 24 4C24 4.55228 23.5523 5 23 5H5C4.44772 5 4 4.55228 4 4ZM6 12C6 11.4477 6.44772 11 7 11H23C23.5523 11 24 11.4477 24 12C24 12.5523 23.5523 13 23 13H7C6.44772 13 6 12.5523 6 12ZM1 19C0.447715 19 0 19.4477 0 20C0 20.5523 0.447716 21 1 21H23C23.5523 21 24 20.5523 24 20C24 19.4477 23.5523 19 23 19H1Z" fill="#F9C78B"></path>
</svg>