<svg xmlns:xlink="http://www.w3.org/1999/xlink" viewBox="0 0 16 16" fill="currentColor" xmlns="http://www.w3.org/2000/svg" aria-hidden="true" class="flex-shrink-0 pointer-events-none w-4 h-4" width="16"  height="16" >
	<path fill-rule="evenodd" clip-rule="evenodd" d="M14.7692 16C15.1026 16 15.391 15.8782 15.6346 15.6346C15.8782 15.391 16 15.1026 16 14.7692C16 14.4295 15.8814 14.141 15.6442 13.9038L12.3462 10.6058C13.141 9.45833 13.5385 8.17949 13.5385 6.76923C13.5385 5.85256 13.3606 4.97596 13.0048 4.13942C12.649 3.30288 12.1683 2.58173 11.5625 1.97596C10.9567 1.37019 10.2356 0.889423 9.39904 0.533654C8.5625 0.177885 7.6859 0 6.76923 0C5.85256 0 4.97596 0.177885 4.13942 0.533654C3.30288 0.889423 2.58173 1.37019 1.97596 1.97596C1.37019 2.58173 0.889423 3.30288 0.533654 4.13942C0.177885 4.97596 0 5.85256 0 6.76923C0 7.6859 0.177885 8.5625 0.533654 9.39904C0.889423 10.2356 1.37019 10.9567 1.97596 11.5625C2.58173 12.1683 3.30288 12.649 4.13942 13.0048C4.97596 13.3606 5.85256 13.5385 6.76923 13.5385C8.17949 13.5385 9.45833 13.141 10.6058 12.3462L13.9038 15.6346C14.1346 15.8782 14.4231 16 14.7692 16ZM6.85714 11.4286C5.59864 11.4286 4.52211 10.9813 3.62755 10.0867C2.73299 9.19218 2.28571 8.11565 2.28571 6.85714C2.28571 5.59864 2.73299 4.52211 3.62755 3.62755C4.52211 2.73299 5.59864 2.28571 6.85714 2.28571C8.11565 2.28571 9.19218 2.73299 10.0867 3.62755C10.9813 4.52211 11.4286 5.59864 11.4286 6.85714C11.4286 8.11565 10.9796 9.19388 10.0816 10.0918C9.19048 10.983 8.11565 11.4286 6.85714 11.4286Z" fill="#FFFFFF"></path>
</svg>