<svg xmlns:xlink="http://www.w3.org/1999/xlink" fill="currentColor" viewBox="0 0 16 16" xmlns="http://www.w3.org/2000/svg" aria-hidden="true" class="flex-shrink-0 pointer-events-none w-4 h-4" width="16"  height="16" >
	<path d="M14.454 0c.322 0 .628.103.89.291l.103.08.04.029.03.024.02.027.093.099c.202.239.33.532.362.846l.008.159v4.578a.98.98 0 01-.978.983.979.979 0 01-.972-.876l-.005-.107V3.296L8.67 8.71a.973.973 0 01-.564.28L7.978 9a.973.973 0 01-.692-.289.987.987 0 01-.081-1.296l.081-.093 5.317-5.356H9.91a.98.98 0 01-.972-.876L8.933.983c0-.507.381-.924.871-.977L9.911 0h4.543z" fill="#F9C78B">
	</path>
	<path d="M2.614 16.003a2.62 2.62 0 01-2.61-2.462L0 13.381V5.625a2.622 2.622 0 012.456-2.617l.158-.005h5.102c.566 0 1.029.462 1.029 1.039 0 .538-.403.977-.917 1.033l-.112.006H2.614c-.279 0-.507.2-.55.456l-.007.088v7.756c0 .268.2.494.466.537l.091.007h7.772c.279 0 .507-.2.55-.456l.007-.088V8.29c0-.577.463-1.04 1.029-1.04.528 0 .966.403 1.022.926L13 8.29v5.091a2.622 2.622 0 01-2.456 2.617l-.158.005H2.614z" fill="#F9C78B">
	</path>
</svg>